<!DOCTYPE svg PUBLIC "-//W3C//DTD SVG 1.1//EN" "http://www.w3.org/Graphics/SVG/1.1/DTD/svg11.dtd">
<!-- Uploaded to: SVG Repo, www.svgrepo.com, Transformed by: SVG Repo Mixer Tools -->
<svg width="800px" height="800px" viewBox="-1.8 -1.8 23.60 23.60" xmlns="http://www.w3.org/2000/svg" fill="#000000">
<g id="SVGRepo_bgCarrier" stroke-width="0"/>
<g id="SVGRepo_tracerCarrier" stroke-linecap="round" stroke-linejoin="round" stroke="#000000" stroke-width="2.76"> <g id="star" transform="translate(-2 -3)"> <path id="secondary" fill="#ffea00" d="M12,4,9.22,9.27,3,10.11l4.5,4.1L6.44,20,12,17.27,17.56,20,16.5,14.21l4.5-4.1-6.22-.84Z"/> <path id="primary" d="M12,4,9.22,9.27,3,10.11l4.5,4.1L6.44,20,12,17.27,17.56,20,16.5,14.21l4.5-4.1-6.22-.84Z" fill="none" stroke="#000000" stroke-linecap="round" stroke-linejoin="round" stroke-width="0.0002"/> </g> </g>
<g id="SVGRepo_iconCarrier"> <g id="star" transform="translate(-2 -3)"> <path id="secondary" fill="#ffea00" d="M12,4,9.22,9.27,3,10.11l4.5,4.1L6.44,20,12,17.27,17.56,20,16.5,14.21l4.5-4.1-6.22-.84Z"/> <path id="primary" d="M12,4,9.22,9.27,3,10.11l4.5,4.1L6.44,20,12,17.27,17.56,20,16.5,14.21l4.5-4.1-6.22-.84Z" fill="none" stroke="#000000" stroke-linecap="round" stroke-linejoin="round" stroke-width="0.0002"/> </g> </g>
</svg>